<svg xmlns="http://www.w3.org/2000/svg" width="32" height="32"><g stroke-linecap="round" stroke-linejoin="round" transform="translate(2339.48 -712.135)"><path fill="#faa41a" stroke="#383747" d="M-2311.477 729.375v8.392a3.59 3.59 0 0 1-3.6 3.596h-16.796a3.59 3.59 0 0 1-3.6-3.596v-8.392z"/><ellipse cx="-2336.972" cy="730.13" fill="none" stroke="#383747" rx="1.5" ry="1.499"/><ellipse cx="-2309.987" cy="730.13" fill="none" stroke="#383747" rx="1.5" ry="1.499"/><path fill="#faa41a" stroke="#383747" d="M-2335.472 726.978h23.995c-.022-1.51.074-3.597-2.4-3.597h-6.59v-1.53h-6.007v1.53h-5.999c-2.473 0-3 2.088-3 3.597z"/><path fill="none" stroke="#383747" d="M-2323.628 716.404a.75.75 90 0 0 .75-.742.75.75 90 0 0-.735-.756M-2323.692 717.895a.75.75 0 0 1-.75-.742.75.75 0 0 1 .736-.756M-2323.628 719.394a.75.75 90 0 0 .75-.742.75.75 90 0 0-.735-.757m2.985-1.49a.75.75 90 0 0 .75-.743.75.75 90 0 0-.736-.756M-2320.693 717.895a.75.75 0 0 1-.75-.742.75.75 0 0 1 .736-.756M-2320.628 719.394a.75.75 90 0 0 .75-.742.75.75 90 0 0-.736-.757m-5.78-1.49a.75.75 90 0 0 .749-.743.75.75 90 0 0-.736-.756M-2326.46 717.895a.75.75 0 0 1-.749-.742.75.75 0 0 1 .736-.756M-2326.395 719.394a.75.75 90 0 0 .75-.742.75.75 90 0 0-.736-.757"/><path fill="none" stroke="#fff" d="M-2313.679 734.499v2.941c0 1.04-.837 1.876-1.876 1.876h-1.925"/></g></svg>